<svg xmlns="http://www.w3.org/2000/svg" viewBox="0 0 48 48" fill="none">
  <defs>
    <linearGradient id="mark-gradient" x1="10" y1="8" x2="39" y2="41" gradientUnits="userSpaceOnUse">
      <stop stop-color="#38BDF8"/>
      <stop offset="0.52" stop-color="#5B75F6"/>
      <stop offset="1" stop-color="#8B5CF6"/>
    </linearGradient>
    <linearGradient id="mark-shine" x1="17" y1="11" x2="30" y2="32" gradientUnits="userSpaceOnUse">
      <stop stop-color="white" stop-opacity="0.62"/>
      <stop offset="1" stop-color="white" stop-opacity="0"/>
    </linearGradient>
  </defs>
  <path d="M10.15 8.99C10.15 6.49 12.88 4.95 15.02 6.23L38.04 20.05C40.08 21.27 40.08 24.23 38.04 25.45L15.02 39.77C12.88 41.05 10.15 39.51 10.15 37.01V8.99Z" fill="url(#mark-gradient)"/>
  <path d="M14.93 10.42C14.93 9.64 15.78 9.17 16.45 9.57L34.71 20.54C35.28 20.88 35.64 21.37 35.8 21.91L15.29 33.45C15.06 33.58 14.93 33.82 14.93 34.08V10.42Z" fill="url(#mark-shine)"/>
  <path d="M21 16.73C21 15.86 21.96 15.34 22.69 15.79L31.09 20.92C31.79 21.35 31.79 22.36 31.09 22.79L22.69 27.92C21.96 28.37 21 27.85 21 26.98V16.73Z" fill="white" fill-opacity="0.94"/>
</svg>
