<svg width="1600" height="1100" viewBox="0 0 1600 1100" fill="none" xmlns="http://www.w3.org/2000/svg">
  <defs>
    <radialGradient id="topSpot" cx="0" cy="0" r="1" gradientUnits="userSpaceOnUse" gradientTransform="translate(800 120) rotate(90) scale(320 760)">
      <stop offset="0" stop-color="#E9F3FF" stop-opacity="0.2"/>
      <stop offset="0.35" stop-color="#CFE5FF" stop-opacity="0.08"/>
      <stop offset="1" stop-color="#CFE5FF" stop-opacity="0"/>
    </radialGradient>
    <radialGradient id="leftGlow" cx="0" cy="0" r="1" gradientUnits="userSpaceOnUse" gradientTransform="translate(220 500) rotate(8) scale(520 310)">
      <stop offset="0" stop-color="#6CA8FF" stop-opacity="0.26"/>
      <stop offset="0.5" stop-color="#6CA8FF" stop-opacity="0.09"/>
      <stop offset="1" stop-color="#6CA8FF" stop-opacity="0"/>
    </radialGradient>
    <radialGradient id="rightGlow" cx="0" cy="0" r="1" gradientUnits="userSpaceOnUse" gradientTransform="translate(1360 280) rotate(-16) scale(480 280)">
      <stop offset="0" stop-color="#C588FF" stop-opacity="0.24"/>
      <stop offset="0.52" stop-color="#C588FF" stop-opacity="0.1"/>
      <stop offset="1" stop-color="#C588FF" stop-opacity="0"/>
    </radialGradient>
    <linearGradient id="beamBlue" x1="0" y1="0" x2="1600" y2="0" gradientUnits="userSpaceOnUse">
      <stop offset="0" stop-color="#6CA8FF" stop-opacity="0"/>
      <stop offset="0.2" stop-color="#6CA8FF" stop-opacity="0.9"/>
      <stop offset="0.58" stop-color="#8BC9FF" stop-opacity="0.28"/>
      <stop offset="1" stop-color="#8BC9FF" stop-opacity="0"/>
    </linearGradient>
    <linearGradient id="beamViolet" x1="0" y1="0" x2="1600" y2="0" gradientUnits="userSpaceOnUse">
      <stop offset="0" stop-color="#B273FF" stop-opacity="0"/>
      <stop offset="0.2" stop-color="#B273FF" stop-opacity="0.84"/>
      <stop offset="0.6" stop-color="#D4B0FF" stop-opacity="0.26"/>
      <stop offset="1" stop-color="#D4B0FF" stop-opacity="0"/>
    </linearGradient>
    <filter id="blur80" x="-220" y="-220" width="2040" height="1540" filterUnits="userSpaceOnUse" color-interpolation-filters="sRGB">
      <feGaussianBlur stdDeviation="40"/>
    </filter>
    <filter id="blur24" x="-80" y="-80" width="1760" height="1260" filterUnits="userSpaceOnUse" color-interpolation-filters="sRGB">
      <feGaussianBlur stdDeviation="10"/>
    </filter>
    <filter id="softNoise" x="0" y="0" width="1600" height="1100" filterUnits="userSpaceOnUse" color-interpolation-filters="sRGB">
      <feTurbulence type="fractalNoise" baseFrequency="0.75" numOctaves="2" seed="6"/>
      <feColorMatrix type="saturate" values="0"/>
      <feComponentTransfer>
        <feFuncA type="table" tableValues="0 0.018"/>
      </feComponentTransfer>
    </filter>
  </defs>

  <rect width="1600" height="1100" fill="url(#topSpot)"/>
  <ellipse cx="220" cy="500" rx="520" ry="310" fill="url(#leftGlow)"/>
  <ellipse cx="1360" cy="280" rx="480" ry="280" fill="url(#rightGlow)"/>

  <g filter="url(#blur80)" opacity="0.9">
    <path d="M-60 700C260 470 662 446 966 536C1190 602 1404 748 1680 696" stroke="url(#beamBlue)" stroke-width="14" stroke-linecap="round"/>
    <path d="M120 270C474 136 962 142 1316 238C1498 288 1644 368 1778 484" stroke="url(#beamViolet)" stroke-width="16" stroke-linecap="round"/>
  </g>

  <g filter="url(#blur24)" opacity="0.72">
    <path d="M180 214L812 794" stroke="url(#beamBlue)" stroke-width="5" stroke-linecap="round"/>
    <path d="M1452 124L986 672" stroke="url(#beamViolet)" stroke-width="5" stroke-linecap="round"/>
    <path d="M102 918C382 760 760 730 1044 808C1240 862 1422 956 1628 918" stroke="url(#beamBlue)" stroke-width="4" stroke-linecap="round"/>
  </g>

  <g opacity="0.22">
    <circle cx="1246" cy="262" r="118" stroke="#D6BEFF" stroke-width="1.1"/>
    <circle cx="1246" cy="262" r="186" stroke="#8DBFFF" stroke-width="0.9"/>
    <circle cx="470" cy="722" r="92" stroke="#9FD0FF" stroke-width="1"/>
  </g>

  <g opacity="0.6">
    <circle cx="212" cy="180" r="1.2" fill="#FFFFFF"/>
    <circle cx="386" cy="132" r="1.1" fill="#EAF5FF"/>
    <circle cx="608" cy="188" r="1.2" fill="#FFFFFF"/>
    <circle cx="1180" cy="152" r="1.3" fill="#F8EEFF"/>
    <circle cx="1364" cy="198" r="1.2" fill="#FFFFFF"/>
    <circle cx="1446" cy="604" r="1.1" fill="#EAF5FF"/>
    <circle cx="312" cy="756" r="1.2" fill="#FFFFFF"/>
    <circle cx="982" cy="862" r="1.3" fill="#FFFFFF"/>
  </g>

  <rect width="1600" height="1100" filter="url(#softNoise)"/>
</svg>
