<svg xmlns="http://www.w3.org/2000/svg" width="256" height="256" viewBox="0 0 256 256" fill="none">
  <g stroke="white" stroke-width="14" stroke-linecap="round" stroke-linejoin="round">
    <path d="M62 74C62 67.373 67.373 62 74 62H150" />
    <path d="M188 164V182C188 188.627 182.627 194 176 194H80C69.507 194 62 186.493 62 176V80" />
    <circle cx="92" cy="98" r="10" fill="white" stroke="none" />
    <path d="M82 154L110 126L126 142L149 119L178 148" />
  </g>
  <g fill="white">
    <path d="M178 54C181.5 70 185 73.5 201 77C185 80.5 181.5 84 178 100C174.5 84 171 80.5 155 77C171 73.5 174.5 70 178 54Z" />
    <path d="M145 73C147 82 149 84 158 86C149 88 147 90 145 99C143 90 141 88 132 86C141 84 143 82 145 73Z" />
    <path d="M209 95C211.3 105 213.7 107.3 224 109.7C213.7 112.1 211.3 114.4 209 124.5C206.7 114.4 204.3 112.1 194 109.7C204.3 107.3 206.7 105 209 95Z" />
  </g>
</svg>
